# xmcd
# 
# Track frame offsets:
#     151
#     16447
#     35301
#     62859
#     89218
#     113432
# 
# Disc length: 1716
# 
# Revision: 0
# Processed by: cddbd v1.5.2PL0 Copyright (c) Steve Scherf et al.
# Submitted via: BonkEnc v1.0.8
# 
DISCID=4806b206
DTITLE=Refuge - Refuge
DYEAR=2009
DGENRE=Contemporary Christian
TTITLE0=Sing to the King
TTITLE1=Yes You Have
TTITLE2=Lord of Lords
TTITLE3=Overcome
TTITLE4=Your Love is Strong
TTITLE5=Revolution Song
EXTD=
EXTT0=
EXTT1=
EXTT2=
EXTT3=
EXTT4=
EXTT5=
PLAYORDER=
